# xmcd CD database file
#
# Track frame offsets:
#	150
#	18365
#	36182
#	58985
#	76170
#	98152
#	124262
#	146395
#	162657
#
# Disc length: 2537 seconds
#
# Revision: 0
# Processed by: cddbd v1.5.2PL0 Copyright (c) Steve Scherf et al.
# Submitted via: CDex 1.74
#
DISCID=7509e709
DTITLE=Matt Taylor - Old New Intuitive
DYEAR=1997
DGENRE=Blues
TTITLE0=Bendigo
TTITLE1=Hound Dog Dust Bust
TTITLE2=The Beast
TTITLE3=Good Advice
TTITLE4=Hope
TTITLE5=This Story Must Have No End
TTITLE6=Watch Out
TTITLE7=Somebody Stole My Hair
TTITLE8=My My My
EXTD=YEAR: 1997
EXTT0=
EXTT1=
EXTT2=
EXTT3=
EXTT4=
EXTT5=
EXTT6=
EXTT7=
EXTT8=
PLAYORDER=
